<svg id="Layer_1" data-name="Layer 1" xmlns="http://www.w3.org/2000/svg" viewBox="0 0 38.88 49.45"><defs><style>.cls-1{fill:#3e72a2;}</style></defs><path class="cls-1" d="M969.41,541.34c-1.39,1.63-3,3.07-4.37,4.69s-4.18,1.36-5.16,3.66a3.93,3.93,0,0,0-1.82-.92c-2.43-.75-5-1.2-7-3.06a7.86,7.86,0,0,1-1.34-2.12c-.34-.67-2-4.15-2.18-4.63a21.38,21.38,0,0,1-.81-9.14,23.11,23.11,0,0,0,.53-4.14c0-.18,0-.36,0-.54.59-.25,1-.82,1.7-.92a.12.12,0,0,0,.17,0c1,1.47,2.81,2.15,3.66,3.82.34.65.93,1.48,1.87,1.21a2.34,2.34,0,0,0,1.48-1.89,9.73,9.73,0,0,1,1.8-3.24c.69-1,1.81-1.64,2.14-2.94.16-.63.72-.17.84.14a29.06,29.06,0,0,0,4.07,7c.41.54,0,.84-.07,1.19-1.45-1.66-2.79-3.31-4.28-4.82-.49-.5-1-.11-1.61.44-1.33,1.31-1.69,3.14-2.67,4.63-.37.57-.85,1.44-.37,2.11,2,2.8,2.21,6.15,2.93,9.35.08.35-.18.91.43.93s.58-.46.68-.84a22,22,0,0,1,3.24-6.68c.87-1.24,1.92-2.41,2.17-4,0-.22.2-.43.39-.32.84.46,1-.31,1.35-.69a5.54,5.54,0,0,1,1.9-1.41c.66-.21,1.83,0,1.89.75a24,24,0,0,1-.1,6.92c-.4,1.83-1,3.62-1.48,5.44Zm-20.56-14.93c-.38.4-.11,3.08-.41,4.58-.19.94-.7,2-.46,2.83.61,2.08.57,4.26,1.15,6.3a6.44,6.44,0,0,0,2.27,3.43c1.43,1,3.06,1.65,4.55,2.58,1.11.71,2,.2,2-1.11a21.07,21.07,0,0,0-.47-3.67,46.93,46.93,0,0,0-2.34-6.92,9.57,9.57,0,0,0-.64-2.12C953,530,949.23,526,948.85,526.41Zm20.9,3c-.92.86-4,3.77-4.93,6.14a57.18,57.18,0,0,1-2.58,5.21,18.72,18.72,0,0,0-1.94,3.61c-.07.26-.31.6.07.75s.48.49.77.2c.89-.89,2.11-.87,3.19-1.2,1.83-.55,2.13-2.5,3.44-3.5,1.05-.79,1.25-2.1,1.53-3.18C970,534.84,970.61,528.6,969.75,529.41Z" transform="translate(-940.39 -520.9)"/><path class="cls-1" d="M976.44,553.18c-1.45-.54-1.93,1-3,1.41-1.32.47-2,1.91-2.85,3a2.11,2.11,0,0,0-.42,2.55c.38.66-.37,1.48-.71,1.81-1.44,1.42-2,3.54-3.89,4.61-1.2.67-1.06,2.44-2.15,3.36-.39.33-.64.53-1.15.39a14.48,14.48,0,0,1-6.34-3.21c-.84-.78-2.42-.9-3.65-1.37-2.25-.87-4.53-1.69-6.84-2.4-1.28-.39-2.66-.45-4-.75-.4-.09-1.19.13-1.08-.67.08-.6.51-.88,1.21-1.07,2.27-.59,4.51-.09,6.76,0a15.57,15.57,0,0,1,10.9,5,4.46,4.46,0,0,0,.45.33c-.44-3.91-.61-7.73-.76-11.56a7,7,0,0,1,.52-2.87c.1-.26.25-.43.55-.38a.42.42,0,0,1,.35.56c-.76,3.19.57,6.28.47,9.47a27.15,27.15,0,0,0,.8,5.17c.07.42.07.82.54.93s.75-.33.89-.65c1.41-3.09,3.55-5.73,5.46-8.48s4.16-5.35,7.42-6.69c.94-.38,2,.24,3-.16.25-.09.5.46.24.82a22.05,22.05,0,0,1-6.07,5.29c.7-2.21,2.58-2.77,3.57-4.15.49-.09,1-.21,1-.85.14-.1.29-.22.08-.38,0,0-.17.13-.26.2A.93.93,0,0,0,976.44,553.18ZM947,562.12c1.83,1,3.65.91,5,1.93a.36.36,0,0,0,.57-.26c0-.24.06-.6-.2-.66C950.71,562.77,949.21,561.6,947,562.12Zm6.78,2.62a4.07,4.07,0,0,1,1.86,1.09c.21.23.41.34.62.19s.15-.56-.06-.77A2.21,2.21,0,0,0,953.74,564.74Z" transform="translate(-940.39 -520.9)"/></svg>