<svg id="Layer_1" data-name="Layer 1" xmlns="http://www.w3.org/2000/svg" viewBox="0 0 246.9 146.13"><defs><style>.cls-1{fill:#fdfefe;}.cls-2{fill:#2470b1;}.cls-3{fill:#8ec8e4;}.cls-4{fill:#fdfdfd;}.cls-5{fill:#f1f5f6;}</style></defs><g id="Layer_1-2" data-name="Layer 1"><path class="cls-1" d="M177.45,118.42v72c0,.92-.18,1.1-1.1,1.1H73.65c-.92,0-1.1-.18-1.1-1.1V46.5c0-.91.18-1.1,1.1-1.1h102.7c.92,0,1.1.19,1.1,1.1Z" transform="translate(-1.55 -45.4)"/><path class="cls-2" d="M110.94,160.93a7.58,7.58,0,0,1-3.94-6.6,22.32,22.32,0,0,1,.27-7.42c.92-3.66,2.11-7.14,2.75-10.9a20.41,20.41,0,0,1,1-3.2c.18-.65.09-.92-.37-1-1.19-.19-2.38-.83-3.57-.92a2.59,2.59,0,0,1-2-3.94,41.49,41.49,0,0,0,2.94-6,6.57,6.57,0,0,1,1.74-2.57c1.1-1,.82-1.83-.1-2.66-2.47-2.38-3-5.31-2.93-8.52,0-.91.55-1.65.55-2.56a1.83,1.83,0,0,0-1-1.83c-3-1.75-6.13-3.49-9.07-5.23-.64-.45-1.37-.91-2-1.28-2.11-1.19-2.38-2.56-1.47-4.86s2.84-3.84,3.94-6c.37-.73,1.47-.55,2.2-.09,2.11,1.28,4.22,2.65,6.32,3.75s4.4,2.48,6.69,3.58c.83.36,1.47-.19,2-.55,3.11-2.2,6.41-3.58,10.35-2.94,2,.37,2.29.1,3.3-1.83a24.7,24.7,0,0,1,2.93-3.94c.92-1.28,1.65-2.65,2.56-3.85a34.27,34.27,0,0,0,2.57-4.76c.37-.64,1-1.19,1.65-.73,1.74,1.1,3.94.82,5.77,1.74,1.37.73,2.38,1.92,1.83,3.39a8.12,8.12,0,0,1-1.19,2.56c-1.37,2.11-2.38,4.58-4.4,6.33a15.11,15.11,0,0,0-2.47,3.84c-.37.64,0,1.38.46,2a17.56,17.56,0,0,0,1.28,1.56,10.84,10.84,0,0,1,2.75,7.42c-.09,2.1,1,2.75,2.47,3.48a6.07,6.07,0,0,1,2.11,1.28c1.28,1.47,3.3,1.83,4.86,3,1.83,1.38,2.29,2.29,1.74,4.58-.64,2.66-2.39,4.59-3.58,6.88-.64,1.19-3.29,1.19-4.58-.19s-2.93-1.37-4.3-2.29a1.66,1.66,0,0,0-.09.55c.09.37.18,1-.19,1.1a.85.85,0,0,1-.91-.91,3,3,0,0,0-.65-1.47c-.64-.92-1.28-1.19-2.19-.18a6.42,6.42,0,0,1-2.29,1.55c-.74.28-.74,1.19-1.75,1.38-3.11.64-6.13,1.65-9.34,2h-.37c-2-1-2.84.64-3.66,1.74-1.38,2-2.29,4.31-3.76,6.23-.55.74-.91,2.29-2.56,1.84-.55-.19-.55.64-.64,1a44.91,44.91,0,0,0-1.47,8.62c-.09,1.55-1.83,6.68-1.92,7.05a8.91,8.91,0,0,0,1.28,8.15A3.18,3.18,0,0,1,110.94,160.93Zm-7.79-62.11-.09.09c.09,0,.09.09.18.09h1c.73.09,1.1,1.19,2,.82a2.45,2.45,0,0,0,1.38.46,1.14,1.14,0,0,0,1,.55c.45.55.91,1.1,1.65,1.1.45.28,1,.46,1.46.73a.82.82,0,0,0,.55.55,6.09,6.09,0,0,1,2,1c.36.09.64.18,1,.28a1.86,1.86,0,0,1,.74.09c-.19.18-.09.36-.09.55-.1.55.18.91.73.82a2.12,2.12,0,0,1,1.1.28c.73,1,1.1,1.92.27,3.11-.27.37,0,.92.19,1.28a2.6,2.6,0,0,0-.46.65c-.19,0-.55-.1-.64,0-.74.91-2,1.55-2.11,2.93,0,.46-.37.73-.64,1-.83,1.1-2.11,2.2-1.74,3.85-.37.19-.74.28-.92.55a4.76,4.76,0,0,0-.64,1.56,5,5,0,0,0-.82,1.92c-.37.28.09,1.19-.83,1.1h0c-.09.55-.82.64-.92,1.1a3,3,0,0,1-1.64,2.48.39.39,0,0,0,.09.73c.73.27,1.1,1.1,1.92,1a2.87,2.87,0,0,1,1.19.64,2.28,2.28,0,0,0,3.21-.83h0a4.49,4.49,0,0,0,2.75-4.12h0c1.28-.09,1.65-1.1,1.92-2.11a.34.34,0,0,1,.28-.09c.55-.18.64-.64.73-1.1a9.31,9.31,0,0,1,.37-1c1,.27,1-.74,1.19-1.2,1.1-1.83,2.65-3.48,2.84-5.77l.55-.27c.91,0,.55-.64.55-1.1a.35.35,0,0,1,.09-.28c.55-.27.55-.91.73-1.37h0c.46.09.82,0,.46-.64.18-1.38-.55-2-1.83-2.11a2.52,2.52,0,0,1-2.66-1.47c-.28-.91-1.19-1.92-.28-3,.28-.27-.09-.46-.18-.73l-.27-1.38c1.83-.09,3.39-1,5-1.55a2.92,2.92,0,0,0,1.74-1.84c.09-.27-.1-.73.36-.82,1-.27.64-1,.64-1.65.37.09.92,0,.74.64-.19.46.09.46.36.46,2,.09,2.84-.55,3.12-2.38.55-.28,1-.55.82-1.28s-.55-.83-1.19-.74a6.55,6.55,0,0,0,.73-1.1,2.54,2.54,0,0,0,1.2,1c.27.09.82.09.73-.27-.09-.65.64-1,.46-1.56.27-.18.64-.28.82-.64,1-.37.55-1.19.73-1.83.46,0,.46-.28.46-.65.19,0,.46.1.55,0,1.19-1,1.93-2.38,3-3.48.27-.27,0-.55-.28-.82-.55-.55-1.56-.92-1.65-1.83a1.16,1.16,0,0,1,.09-.55c.37.27.64.64,1,.91,1.65,1.38,1.92,1.28,2.47-.82a1.29,1.29,0,0,1,.92-1.1c1.19-1.38,1-2.11-.55-2.48-1-1.09-2.56-.45-3.66-1.28-.46-.36-.92-.82-1.65-.27s-.09,1.1-.09,1.65c-.92-.19-.83.73-1.1,1.1-.83,1.19-1.47,2.38-2.2,3.57-.55.36-1.19.64-1.19,1.46a9.48,9.48,0,0,1-.46,2.2c-.46-.09-.83.09-.83.55A2.83,2.83,0,0,1,130.54,88a1.47,1.47,0,0,0-.55,1.64,1.79,1.79,0,0,1-.36.55c-.19.55-1.56.55-.74,1.56,0,.18-.09.37-.09.55-.73,0-1.37,0-1.65,1s.46,1.1.92,1.37a1.74,1.74,0,0,0,.73.37l-.27.82a7.33,7.33,0,0,1-1.38-.91c-.55-.46-.64-.09-.91.27-.46.83-.55,1.74-1,2.57-.83,1.56-1.1,1.92-2.84,1.56-.73-.19-1.28-.19-1.56.64-.09.27-.37.27-.55.27l-.36-.36c.18-1.38-.1-2.3-1.84-2.11-.18,0-.46-.28-.64-.46a32,32,0,0,0-6.78-3,1.16,1.16,0,0,0-1.1-.92c-.36-.18-.73-.46-1.1-.64-.55-.28-.82-.92-1.55-.92,0-.82-.65-.82-1.2-1.1a6.07,6.07,0,0,0-1.19-1,4.46,4.46,0,0,0-1-.46,13.51,13.51,0,0,0-1.2-1.19L101,87.55a1.31,1.31,0,0,1-.27-.37c-.74-.82-1.38-.64-2.11.09a3.9,3.9,0,0,0-1.1,2.11v.37c-1.65.91-2.2,2.56-2.75,4.21-.18.64.18.73.73.73.37.19.46.83,1.1.64.55.37.83,1.2,1.74,1a1.64,1.64,0,0,0,1.1.28c.64.36,1.29.64,1.93,1a2.1,2.1,0,0,0,1.74.83A.69.69,0,0,1,103.15,98.82Zm28,.55c.19-.37.37-.83.55-1.2s-.09-.45-.36-.55-.55-.36-.83-.18a1.55,1.55,0,0,0-.18.46c.64.46,0,1,0,1.47-1.1.18-1.83.36-2.11,1.92-.18,1.19.74,1.47.74,2.2l.54,1.65c-.64.36-.18.73-.09,1.1-2.1,1.65-2.2,2.75-.36,3.84.55.28,1.28.28,1.65.92.91.37,1.19,1.56,2.19,1.83.37.74,1.2.46,1.75.92.36.27.73.46,1.09.73.28,0,.55.09.74.09a2.06,2.06,0,0,0,1.74.74,1.16,1.16,0,0,0,1.28.45,11.16,11.16,0,0,1,2.84,1.65c1.38.92,3,1.47,4.12,2.75.28.28.55.28.74-.09a7.55,7.55,0,0,0,1.55-2.93c.1-.83.28-1.28,1.2-1.47.73-.09,1.28-.91,1.55-1.55s-.73-.92-1.1-1.29c-.55-.55-1.65-.27-2-1.19a1,1,0,0,0-.28-.73c-1.83-.92-3.66-1.92-5.49-2.84l-.55-.28-.28-.27c-.46-.64-.46.46-.82.18h-.09c-.19-.46-.83-.36-1-.82.09-1-.55-1.74-1.93-1.93a4.13,4.13,0,0,0-1.46-1,5.06,5.06,0,0,1-2.75-2.2c.37-.19.82.09,1.1-.28-.92-1.37-2.84-.73-3.76-2C131.28,99.55,131.28,99.46,131.18,99.37Zm-21.89,5.77a.09.09,0,0,0-.09-.09l.09.09h0A15.13,15.13,0,0,0,108,108a1.94,1.94,0,0,0,0,1.46c.73,1.74,1.09,3.67,2.1,5.32.83,1.28,1.19,1.19,2.11-.09a46.25,46.25,0,0,1,3.48-4.77A2.36,2.36,0,0,0,116,108a.65.65,0,0,0-.74-.64c-1.19.18-1.92-.55-2.93-.92S110.66,104.77,109.29,105.14Zm18.87,6.5c-.82-.46-.92-.27-1.19.37-.92,1.74-1.92,3.39-2.75,5.13-.55,1.28-1.1,2.66-2.47,3.39.82.37,1.65.91,2.29.55a10.67,10.67,0,0,1,2.29-.73c1,.73,1.92,0,2.84-.28,1.74-.55,3.48-1.1,4.3-2.93C134.85,116,128.8,112.1,128.16,111.64Zm8.25-17.13c-.55.18-1,.37-1.1,1a4.79,4.79,0,0,1-1.38,2.38c-.27.37-.55.46-.27.92a9.84,9.84,0,0,0,4.12,3.84c.73.28,1.65,1,2.2.64.73-.45-.09-1.37-.09-2.1a9.29,9.29,0,0,0-1.38-4.67A4.94,4.94,0,0,0,136.41,94.51ZM125.05,90.2a12.59,12.59,0,0,0-4.49,1.1A18.08,18.08,0,0,1,116.34,93c-.36.1-.64.28-.64.55-.09.46.37.55.73.74A17.2,17.2,0,0,1,120.92,97c.46.28.74.28,1,0,1.65-1.55,2.2-3.94,3.67-5.68C126,90.75,125.32,90.39,125.05,90.2Z" transform="translate(-1.55 -45.4)"/><path class="cls-2" d="M145.57,142C148,153,144,162,133.66,162c-3.66-2,12.34,1,10.44-18.32h0C144.19,143.62,145.66,142.33,145.57,142Z" transform="translate(-1.55 -45.4)"/><path class="cls-2" d="M143.19,134.27c0-2.66-1.75-4.85-1.75-7.42a14.59,14.59,0,0,0-.82-3.48c-.09-.28-.27-.83.28-.92a.67.67,0,0,1,.82.55l.27.83a30.46,30.46,0,0,0,1.56,4.85,13.8,13.8,0,0,1,1.38,5.22c.09,2.29.36,4.59.64,6.88-.09.18-1.28,3.48-1.47,2.74C144.19,143.52,143.19,137.11,143.19,134.27Z" transform="translate(-1.55 -45.4)"/><path class="cls-2" d="M145.57,142.52" transform="translate(-1.55 -45.4)"/><path class="cls-3" d="M103.06,98.63c-.64-.09-1.38-.09-1.74-.82.91-.64.36-1.83,1-2.66s.18-1.46-.46-1.83-1,.46-1.29.91a12.51,12.51,0,0,1-1.19,2.57,1.46,1.46,0,0,1-1.1-.27c.19-.28.65-.28.65-.65.09-1.65,1.19-2.74,1.92-4.12.55-1,1.74-1.92,1.56-3.3a12.14,12.14,0,0,0,1.19,1.19c-.46.65-.92,1.29-1.38,1.84a.71.71,0,0,0-.18,1,1,1,0,0,0,.82.37.71.71,0,0,0,.74-.64,4.7,4.7,0,0,1,1-2,5.79,5.79,0,0,0,1.19,1c-.37.73-.64,1.47-1.1,2.2-.28.46-.37.82.18,1.1a.77.77,0,0,0,1.1-.37c.37-.64.64-1.28,1-1.92.64,0,1,.64,1.55.92a16.61,16.61,0,0,1-1.19,1.46c-.27.37-.09.73,0,1.1s.65.46,1,.55.55-.46.55-.73c.09-.64.73-1.1.64-1.74a1.15,1.15,0,0,1,1.1.91,6.08,6.08,0,0,1-.36,1.84c-.28.73.18,1.09.55,1.37s.82-.18,1-.64c.19-.28.46-.46.55-.73.09-.46.46-.46.74-.37a.4.4,0,0,1,.18.73c-.37.46-.18,1-.37,1.56a.73.73,0,0,0,.28.82.71.71,0,0,0,1-.18,6.25,6.25,0,0,0,.83-1.28.44.44,0,0,1,.55-.28c.27.09.18.46.18.55-.09.64-.27,1.29-.36,2,.73-.09,1.46,0,1.74-.83.18-.36.27-.82.82-.64s.09.74,0,1a.85.85,0,0,0,.09,1.19.78.78,0,0,0,1.19-.09,4.15,4.15,0,0,1,.65-.55l.36.37c-.18.55-.27,1.1.46,1.37l.27,1.37c-2,0-2.19.1-2.74,2.11-.1.37-.19.73-.55.83a1.2,1.2,0,0,0-1.1-.28c-.55,0-.74-.27-.74-.82,1.47.27,1.1-1.19,1.74-1.74a1.08,1.08,0,0,0,.28-1.29c-.09-.18-.18-.36-.37-.18a1.7,1.7,0,0,0-.82,1.19c-.09.55-.09,1.19-.64,1.56a1.86,1.86,0,0,1-.74-.09c-.18-1,.65-1.84.55-2.75,0-.37.28-.83-.36-.83-.28,0-.74,0-.83.65-.09.91-.36,1.74-.36,2.65a6.09,6.09,0,0,0-2-1c1.1-.27.83-1.37,1.1-2.1a.6.6,0,0,0-.46-.83.67.67,0,0,0-.82.74,5.45,5.45,0,0,1-.37,1.74c-.46-.28-1-.46-1.46-.74a15.9,15.9,0,0,0,.55-1.83,1.05,1.05,0,0,0-.65-1.19c-.64-.18-.73.28-.91.73a2.58,2.58,0,0,1-.64,1.19c-.46.1-.74-.18-1-.55-.18-.73.36-1.28.55-1.92s.18-.82-.37-1.1-1.1-.46-1.37.28-.74,1.46-.19,2.29c-.91.27-1.19-.83-2-.83a5.92,5.92,0,0,1,.64-2.47c.18-.46.09-.92-.27-1s-.92.18-.92.55C103.7,97,102.87,97.62,103.06,98.63Z" transform="translate(-1.55 -45.4)"/><path class="cls-3" d="M117.81,111.28a3.24,3.24,0,0,0,.46-.65c.82.65,1.74.83,1.74-.45s.91-1.47,1.74-1.84c.36.46,0,1.19.73,1.47a22.65,22.65,0,0,1,3,1.47c-.18.45-.18,1.09-.73,1.37a10.17,10.17,0,0,0-2.2-1.74c-.64-.28-1.1-.28-1.37.27s-1.19,1.1-.64,1.47c.91.64,1.65,1.83,3,1.56-.27,2.29-1.74,3.94-2.84,5.77-.27.46-.27,1.37-1.19,1.19a5.24,5.24,0,0,1-1.28-1.19c-.37-.64-.74-1-1.38-.55s.19.73.46,1.1.64.46.27.91-.54.1-.73-.18-.55-.46-.82-.18a.73.73,0,0,0-.28.91c.28,1.38,1.1,1.84,2.38,1.38-.27,1-.64,2-1.92,2.11v-.37c0-.64.28-1.65-.64-1.65-.73-.09-1.19.73-1.1,1.56,0,.27,0,.46-.37.36-.73-.18-.82.37-.64.83.19.64.74.55,1.28.27s.74-.91,1.47-.91a4.49,4.49,0,0,1-2.75,4.12,1.75,1.75,0,0,1,.28-1.19c.27-.55-.19-.83-.55-1.1-.19-.18-.37-.18-.55.09s-.37.73-.09,1.1.55.64.82,1a2.28,2.28,0,0,1-3.21.82,3,3,0,0,0-1.19-.64,9.52,9.52,0,0,1,.92-1.92c.82-1.1.55-2.75,1.74-3.39,1-.55.82-1.56,1.28-2.29.64-1.1-.46-1.74-1.19-2.48.18-.36.55-.45.92-.55.18.1.36.1.46.19.36.27.36,1.19,1,.73.46-.37,1.19-.92.55-1.83a.35.35,0,0,1,.09-.28c1.1-.09.28-1.74.65-2,0,0,2-.74,1.74-1.83-.37-1.29.18-1.1.91-1.2.37,0,.64-.36.28-.82A5.56,5.56,0,0,1,117.81,111.28Zm1.37,4c-1.37,0-.91,1.19-1.28,1.92a1.12,1.12,0,0,0,.37,1.47c.64.18,1.1,1.1,1.83.64a1.5,1.5,0,0,0,.09-2.57c-.46-.46-1-.82-1-1.46a2.09,2.09,0,0,1,2.11,1.92c.73-.73,1.1-1.56.64-2.29a2.11,2.11,0,0,0-1.83-1.19C119.37,113.84,119.09,114.57,119.18,115.31Z" transform="translate(-1.55 -45.4)"/><path class="cls-3" d="M141.08,107.89h0c.37,1-.28,1.92-.55,2.84-.18.64-.18,1.19.37,1.37s1-.18,1.46-.64a2.45,2.45,0,0,0,.37-3.39c1.83.92,3.66,1.92,5.49,2.84a.61.61,0,0,1,.28.73,4.56,4.56,0,0,1-3.12-1.28c-.27-.18-.45-.46-.64-.18-.73.64-.82,1.65-1.37,2.38.18.09.37.36.55.36.82-.18,1.28.37,1.92.74s1.65.91,2.11-.37c.18-.37.46-.64.82-.46s0,.64,0,.92a6.55,6.55,0,0,1-1.37,3.39,5.21,5.21,0,0,0-.82,2.93c-1.1-1.28-2.75-1.83-4.13-2.75a8,8,0,0,0-2.84-1.65c-.09-.73.74-.73,1-1.1s.82-.73.37-1.1-1.1-.73-1.56-.09-1.1,1-1.1,1.74a2.17,2.17,0,0,1-1.74-.73c.55-.37.73-1,1.1-1.47.18-.18.73-.45.09-.82a.66.66,0,0,0-1,.37c-.09.73-.82,1.19-1,1.83-.36-.28-.73-.46-1.09-.73a2.42,2.42,0,0,1,.36-1.65c.28-.46.64-.92.19-1.38a2.07,2.07,0,0,0-1.93-.55c-.55,0-.46.64-.64,1.1a2.14,2.14,0,0,0,.18,1.65c-1-.27-1.28-1.46-2.2-1.83,1.47-.64,1.29-2.29,2.11-3.39.37-.46.73-1.1,1.28-1,.74.18.19.83.19,1.28-.09,1.1.73,1.56,1.55,1.84s1.1-.46,1.38-1a6.75,6.75,0,0,0,.64-3.57c1.37.18,2,.91,1.92,1.92-1,0-1.37.55-1.37,1.47,0,.36.18.91-.18,1.19-.64.36-.55.55-.09.91.64.55.64-.18.91-.46C140,109.53,140.07,108.34,141.08,107.89Zm2.66,8.88c-.1.64,0,1.1.64,1.19,1.37.37,1.46-1,2.2-1.65.45-.36.09-.64-.19-.82-.64-.64-1.92-.28-2.29-.64-1.46-1.47-1.74-.18-2.2.73-.09.18-.18.46,0,.64a.48.48,0,0,0,.74.09C143.55,115.49,144.29,115.12,143.74,116.77Z" transform="translate(-1.55 -45.4)"/><path class="cls-3" d="M132.65,94.88c-.18,1.83-1,2.38-3.12,2.38-.27,0-.54,0-.36-.46.18-.64-.37-.55-.73-.64h0l.27-.83c1-.55,1.37-1.19.46-2.1-.18-.19-.28-.46-.46-.64,0-.19.09-.37.09-.55a.57.57,0,0,1,.37.09c.46.27,1,.82,1.37.55.83-.74-.09-1.29-.55-1.74-.09-.19-.36-.28-.55-.46a2,2,0,0,1,.37-.55c.27,0,.37.18.55.27,1.37,1,1.56.83,1.83-.73a2.21,2.21,0,0,1,.64-1.47c1-.82.74-1.55-.36-2.1a6,6,0,0,0,.45-2.2c0-.73.65-1.1,1.2-1.47,1.83.37,2.38.09,3.2-1.65a17.25,17.25,0,0,0,.09-3.11c.1-.55-.64-1.1.1-1.65s1.19,0,1.64.27c1.1.83,2.75.19,3.67,1.29-.37-.09-.73-.09-1.1-.19-.55-.09-1.1-.09-1.37.46s.18.92.64,1.19a3.48,3.48,0,0,0,2.38,1,1.84,1.84,0,0,0-.92,1.1c-.91-.09-1.46-.92-2.2-1.19-.45-.18-.82-.37-1.28,0s0,.73,0,1.1a1.18,1.18,0,0,1-.09.55c-2.2.82-2.29,1.46-.73,3.11.27.28.82.55.45.92s-.82,0-1.19-.28a3.53,3.53,0,0,1-.55-.54c-.27-.55-.55-.28-.82,0-.55.64-.73,1.28.18,1.74a1.62,1.62,0,0,1,1,1.19c0,.36,0,.64-.46.64a9.36,9.36,0,0,0-1.74-.73.85.85,0,0,0-.91.36.6.6,0,0,0,.45.83c.74.27.92.91,1.47,1.37-.18.37-.46.46-.83.64-.64-.27-1-1.1-1.74-.73s-.73.92-.64,1.65a7.23,7.23,0,0,0-.73,1.1C131.92,93.59,132.74,94.14,132.65,94.88Z" transform="translate(-1.55 -45.4)"/><path class="cls-1" d="M126.33,120.44a7.26,7.26,0,0,0-2.29.73c-.64.37-1.47-.18-2.29-.55a6.82,6.82,0,0,0,2.47-3.39c.83-1.83,1.83-3.48,2.75-5.13.27-.55.37-.73,1.19-.37.64.37,5,3,5.22,3.21,1.47,1.1,1.47,1.1.19,2.38-1,0-1.19,1.28-1.93,1.28C129.63,118.79,128.16,120,126.33,120.44Z" transform="translate(-1.55 -45.4)"/><path class="cls-1" d="M109.29,105.14c1.37-.37,2.11.82,3.11,1.19s1.74,1.19,2.93.91a.66.66,0,0,1,.74.65,2.36,2.36,0,0,1-.28,1.92,46.12,46.12,0,0,0-3.48,4.76c-.91,1.29-1.28,1.38-2.11.1-1.1-1.65-1.46-3.58-2.1-5.32a2.58,2.58,0,0,1,0-1.46,11.51,11.51,0,0,1,1.19-2.75Z" transform="translate(-1.55 -45.4)"/><path class="cls-1" d="M138.15,105.14a9.32,9.32,0,0,1-.64,3.57c-.28.55-.55,1.28-1.38,1s-1.56-.73-1.56-1.83c0-.46.55-1.1-.18-1.29-.55-.09-.92.46-1.28,1-.83,1.1-.73,2.75-2.11,3.39-.37-.55-1.1-.64-1.65-.92,1-1.28,2.57-2.19,2.66-4.12,0-.27.27-.64-.09-.82s-.64,0-.83.36a1.43,1.43,0,0,1-1.37.74c-.09-.37-.64-.83.09-1.1s1-1.19,1.28-1.84a5.73,5.73,0,0,1,1.1-1.74c.64-.73,1.19.65,1.83.37a5.44,5.44,0,0,0,2.75,2.2A4.76,4.76,0,0,1,138.15,105.14Z" transform="translate(-1.55 -45.4)"/><path class="cls-1" d="M136.41,94.51A7.39,7.39,0,0,1,140,101.2c.09.73.92,1.65.09,2.1-.55.37-1.47-.36-2.2-.64-1.92-.73-3-2.29-4.12-3.84-.37-.46,0-.55.27-.92a6.22,6.22,0,0,0,1.38-2.38C135.4,94.88,135.86,94.6,136.41,94.51Z" transform="translate(-1.55 -45.4)"/><path class="cls-1" d="M125.05,90.2c.27.19.91.55.45,1-1.55,1.74-2,4.12-3.66,5.68-.28.28-.55.37-1,0a22.41,22.41,0,0,0-4.49-2.66c-.36-.09-.73-.27-.73-.73,0-.27.37-.46.64-.55a18.52,18.52,0,0,0,4.22-1.74A20.2,20.2,0,0,1,125.05,90.2Z" transform="translate(-1.55 -45.4)"/><path class="cls-1" d="M125.5,111.18c-1-.45-1.92-1-3-1.46-.73-.28-.37-1-.73-1.47-.74.46-1.74.46-1.74,1.83s-.92,1.2-1.74.46c-.19-.46-.46-.91-.19-1.28.83-1.19.46-2.11-.27-3.11a1.25,1.25,0,0,0,.55-.83c.55-2,.73-2.11,2.75-2.11.09.28.45.46.18.74-.92,1.1,0,2.1.27,3a2.52,2.52,0,0,0,2.66,1.47,1.73,1.73,0,0,1,1.83,2.1c-.45.09-.64.28-.55.64Z" transform="translate(-1.55 -45.4)"/><path class="cls-1" d="M146.67,120.16a4.82,4.82,0,0,1,.82-2.93,5.35,5.35,0,0,0,1.38-3.39c0-.37.45-.64,0-.92a.61.61,0,0,0-.83.46c-.55,1.29-1.37.74-2.11.37s-1.1-.92-1.92-.73c-.18,0-.37-.28-.55-.37.55-.73.64-1.74,1.37-2.38.28-.19.46,0,.65.18a4.72,4.72,0,0,0,3.11,1.28c.37.92,1.56.64,2,1.19s1.46.55,1.1,1.29-.83,1.46-1.56,1.55c-1,.1-1.1.65-1.19,1.47a7.64,7.64,0,0,1-1.56,2.93C147.22,120.44,146.94,120.44,146.67,120.16Z" transform="translate(-1.55 -45.4)"/><path class="cls-1" d="M119.92,100.19a4.15,4.15,0,0,1-.65.55c-.36.27-.82.46-1.19.09a.85.85,0,0,1-.09-1.19c.18-.27.73-.73,0-1-.55-.18-.73.28-.82.64-.28.83-1,.74-1.74.83a19.26,19.26,0,0,0,.36-2c0-.18.19-.46-.18-.55a.44.44,0,0,0-.55.28,6.67,6.67,0,0,1-.82,1.28.69.69,0,0,1-1,.18.62.62,0,0,1-.28-.82c.19-.46,0-1.1.37-1.56.18-.27.18-.64-.18-.73s-.65-.09-.74.37c-.09.27-.36.45-.55.73-.27.46-.55.91-1,.64s-.83-.64-.55-1.37a6.08,6.08,0,0,0,.36-1.84,38.05,38.05,0,0,1,6.78,3c.28.09.46.45.64.45C119.82,97.81,120.1,98.82,119.92,100.19Z" transform="translate(-1.55 -45.4)"/><path class="cls-1" d="M120.83,101.93c-.73-.27-.64-.82-.46-1.37.28,0,.46,0,.55-.28.28-.82.74-.82,1.56-.64,1.65.37,2,0,2.84-1.56.46-.82.55-1.74,1-2.56.18-.37.36-.74.91-.28a12.25,12.25,0,0,0,1.38.92h0c0,.64.37,1.37-.64,1.65-.46.09-.19.55-.37.82a2.64,2.64,0,0,1-1.74,1.83C124.22,100.92,122.57,101.84,120.83,101.93Z" transform="translate(-1.55 -45.4)"/><path class="cls-1" d="M111.76,119.7c.64.74,1.83,1.38,1.19,2.48-.46.73-.27,1.74-1.28,2.29-1.19.64-.92,2.38-1.74,3.39a6.33,6.33,0,0,0-.92,1.92c-.82,0-1.19-.73-1.92-1-.28-.09-.46-.55-.09-.73a3.31,3.31,0,0,0,1.65-2.47,6.74,6.74,0,0,1,1.74-2.2c.91-.37.91-1.1.82-1.93A3.61,3.61,0,0,1,111.76,119.7Z" transform="translate(-1.55 -45.4)"/><path class="cls-1" d="M114.78,118.33s-.09,1.47-.54,1.83c-.65.46-.65-.46-1-.73a.72.72,0,0,0-.46-.18c-.37-1.65.92-2.75,1.74-3.85.27-.37.55-.55.64-1,.09-1.37,1.38-2,2.11-2.93.09-.09.46,0,.64,0,.18.27.37.64.55.91.37.46.09.83-.28.83-.82,0-1.28-.09-.91,1.19.27,1.1-1.74,1.83-1.74,1.83-.19,0-.46,2.11-.64,2s-.28-.37-.46-.28-.09.28-.09.37S114.78,118.33,114.78,118.33Z" transform="translate(-1.55 -45.4)"/><path class="cls-1" d="M102.42,88.37c.09,1.38-1,2.29-1.56,3.3-.73,1.37-1.92,2.47-1.92,4.12,0,.46-.46.37-.65.64-.91.19-1.19-.64-1.74-1,.83-.92.64-2.2,1.47-3.21.55-.64.92-1.1,1.83-.46-1-.91-.64-1.56,0-2.38.37-.55,1.1-.83,1.1-1.65A6.19,6.19,0,0,0,102.42,88.37Z" transform="translate(-1.55 -45.4)"/><path class="cls-1" d="M137.6,87.73a2.17,2.17,0,0,0-1-1.19c-.92-.46-.73-1.1-.18-1.74.27-.28.55-.55.82,0a1.09,1.09,0,0,0,.55.55c.37.27.92.55,1.19.27s-.27-.73-.46-.91c-1.55-1.65-1.46-2.29.74-3.12.09,1,1,1.28,1.65,1.83.27.28.64.55.27.83-1.1,1.1-1.83,2.47-3,3.48C138,87.82,137.78,87.73,137.6,87.73Z" transform="translate(-1.55 -45.4)"/><path class="cls-3" d="M129.63,106.24a1.35,1.35,0,0,0,1.37-.74.75.75,0,0,1,.83-.36c.45.18.09.55.09.82,0,1.93-1.65,2.84-2.66,4.12C127.43,109,127.52,107.89,129.63,106.24Z" transform="translate(-1.55 -45.4)"/><path class="cls-1" d="M132.65,85.71c1.1.55,1.37,1.29.37,2.11a2.16,2.16,0,0,0-.64,1.47c-.28,1.56-.46,1.74-1.84.73-.18-.09-.36-.27-.55-.27,0-.65-.09-1.29.55-1.65a2.18,2.18,0,0,0,1.19-1.84A.71.71,0,0,1,132.65,85.71Z" transform="translate(-1.55 -45.4)"/><path class="cls-1" d="M123.58,114.21c-1.47.27-2.2-.92-3-1.56-.55-.37.36-1,.64-1.47s.82-.55,1.37-.27a10.17,10.17,0,0,1,2.2,1.74c0,.09-.09.18-.09.27a1.05,1.05,0,0,0-.55,1.1A1.34,1.34,0,0,0,123.58,114.21Z" transform="translate(-1.55 -45.4)"/><path class="cls-3" d="M101,87.91c0,.83-.73,1.1-1.1,1.65-.64.83-1,1.47,0,2.38-1-.55-1.28-.18-1.83.46-.92.92-.64,2.29-1.46,3.21-.55.09-.74-.46-1.1-.64.09-.28.09-.64.18-.74,1.19-.82,1.28-2.38,2.11-3.38.45-.55-.1-.55-.28-.74v-.36a1.66,1.66,0,0,0,1.93-1.1,1.58,1.58,0,0,1,1.28-1.1A1.24,1.24,0,0,1,101,87.91Z" transform="translate(-1.55 -45.4)"/><path class="cls-1" d="M137.6,77.38a18.22,18.22,0,0,1-.09,3.11c-.83,1.74-1.38,2-3.21,1.65.73-1.19,1.37-2.47,2.2-3.57C136.77,78,136.68,77.19,137.6,77.38Z" transform="translate(-1.55 -45.4)"/><path class="cls-1" d="M118.17,123.37c-1.28.37-2.1,0-2.38-1.38-.09-.45-.09-.73.28-.91a.6.6,0,0,1,.82.18c.19.28.46.55.73.18s-.09-.64-.27-.91-1.1-.55-.46-1.1,1-.09,1.38.55a5.24,5.24,0,0,0,1.28,1.19c-.09.37-.28.73-.37,1-.64.09-.82.55-.73,1.1C118.27,123.28,118.17,123.28,118.17,123.37Z" transform="translate(-1.55 -45.4)"/><path class="cls-1" d="M142.82,108.16a2.55,2.55,0,0,1-.37,3.39c-.46.46-.91.92-1.46.64s-.55-.82-.37-1.37c.28-.92.92-1.83.55-2.84.37.18.37-.83.82-.19a3.72,3.72,0,0,1-.09.46c.19.09.28,0,.37-.18A.62.62,0,0,1,142.82,108.16Z" transform="translate(-1.55 -45.4)"/><path class="cls-1" d="M129.17,103.49c-.09-.73-1-1.1-.73-2.2.27-1.47.91-1.74,2.1-1.92h.83c0,.09,0,.18.09.18A5.25,5.25,0,0,1,129.17,103.49Z" transform="translate(-1.55 -45.4)"/><path class="cls-3" d="M129.17,103.49a4.51,4.51,0,0,0,2.2-3.85c.91,1.28,2.84.64,3.75,2-.36.36-.82.09-1.1.27-.73.28-1.19-1.1-1.83-.37a5.73,5.73,0,0,0-1.1,1.74c-.27.65-.46,1.56-1.28,1.84A5.92,5.92,0,0,1,129.17,103.49Z" transform="translate(-1.55 -45.4)"/><path class="cls-1" d="M99.39,96.8a12.51,12.51,0,0,0,1.19-2.57c.28-.45.55-1.28,1.29-.91.55.37,1.19,1,.46,1.83s-.19,1.93-1,2.66A19.85,19.85,0,0,1,99.39,96.8Z" transform="translate(-1.55 -45.4)"/><path class="cls-1" d="M143.64,79.85a3.34,3.34,0,0,1-2.38-1c-.36-.27-.91-.64-.64-1.19a1,1,0,0,1,1.37-.46c.37.1.74.1,1.1.19C144.65,77.74,144.83,78.48,143.64,79.85Z" transform="translate(-1.55 -45.4)"/><path class="cls-1" d="M133.2,112.83a1.75,1.75,0,0,1-.18-1.65c.18-.36.09-1,.64-1.1a3,3,0,0,1,1.92.55c.37.46.09.92-.18,1.38a2,2,0,0,0-.37,1.65C134.39,113.2,133.47,113.57,133.2,112.83Z" transform="translate(-1.55 -45.4)"/><path class="cls-1" d="M139.25,81c0-.37-.55-.73,0-1.1s.82-.18,1.28,0c.82.28,1.28,1.1,2.2,1.19-.55,2.11-.83,2.2-2.48.83C139.89,81.59,139.61,81.23,139.25,81Z" transform="translate(-1.55 -45.4)"/><path class="cls-1" d="M97.56,90c.18.18.73.18.28.73-.83,1.1-.92,2.57-2.11,3.39-.18.09-.18.46-.18.74-.55.09-.92,0-.74-.74C95.36,92.59,95.91,90.94,97.56,90Z" transform="translate(-1.55 -45.4)"/><path class="cls-1" d="M128.8,92.49a2.88,2.88,0,0,0,.46.65c.92.91.55,1.64-.46,2.1-.27-.09-.46-.27-.73-.36-.55-.37-1.28-.37-.92-1.38S128.07,92.49,128.8,92.49Z" transform="translate(-1.55 -45.4)"/><path class="cls-1" d="M106.26,99.82c-.64-.82-.18-1.55.19-2.29s.82-.45,1.37-.27.55.55.37,1.1-.73,1.19-.55,1.92A2.45,2.45,0,0,1,106.26,99.82Z" transform="translate(-1.55 -45.4)"/><path class="cls-3" d="M126.33,120.44c1.74-.46,3.3-1.65,5.22-1.93.83-.09.92-1.37,1.92-1.28-.82,1.83-2.65,2.38-4.3,2.93C128.25,120.44,127.34,121.17,126.33,120.44Z" transform="translate(-1.55 -45.4)"/><path class="cls-1" d="M106.91,92.13c-.28.64-.65,1.28-1,1.92a.82.82,0,0,1-1.1.37c-.55-.28-.46-.64-.18-1.1.45-.73.73-1.47,1.09-2.2C106.26,91.3,106.91,91.3,106.91,92.13Z" transform="translate(-1.55 -45.4)"/><path class="cls-1" d="M141.08,107.89c-1,.45-1,1.64-1.74,2.29-.19.18-.28.91-.92.45-.46-.36-.55-.64.09-.91.37-.19.19-.73.19-1.19,0-.92.36-1.47,1.37-1.47C140.25,107.52,140.9,107.34,141.08,107.89Z" transform="translate(-1.55 -45.4)"/><path class="cls-1" d="M133.2,91.67a1.44,1.44,0,0,1,.64-1.65c.73-.27,1.19.55,1.74.73.09.64-.55.92-.46,1.56.1.37-.36.37-.73.28A1.4,1.4,0,0,1,133.2,91.67Z" transform="translate(-1.55 -45.4)"/><path class="cls-1" d="M109.56,93.69c.09.64-.55,1.09-.64,1.74,0,.27-.09.82-.55.73s-.82-.09-1-.55-.36-.73,0-1.1a17.22,17.22,0,0,1,1.2-1.47A9.65,9.65,0,0,0,109.56,93.69Z" transform="translate(-1.55 -45.4)"/><path class="cls-1" d="M103.06,98.63c-.19-.91.64-1.65.64-2.56a.65.65,0,0,1,.92-.55c.36.09.45.55.27,1a5.88,5.88,0,0,0-.64,2.47h-1c0-.09,0-.18-.09-.18S103.15,98.63,103.06,98.63Z" transform="translate(-1.55 -45.4)"/><path class="cls-1" d="M108.65,100.74a1.94,1.94,0,0,0,.64-1.19c.18-.46.27-.92.91-.73a.9.9,0,0,1,.65,1.19c-.19.64-.37,1.19-.55,1.83C109.47,101.93,109.1,101.29,108.65,100.74Z" transform="translate(-1.55 -45.4)"/><path class="cls-1" d="M136.31,90.2c-.55-.36-.73-1.1-1.46-1.37a.6.6,0,0,1-.46-.82.67.67,0,0,1,.92-.37c.55.18,1.1.46,1.74.73C136.86,89,137.32,89.93,136.31,90.2Z" transform="translate(-1.55 -45.4)"/><path class="cls-1" d="M138.42,115.31c0-.83.64-1.19,1.1-1.74s1.19-.19,1.56.09c.55.36-.18.73-.37,1.1s-1.1.36-1,1.1A1.43,1.43,0,0,1,138.42,115.31Z" transform="translate(-1.55 -45.4)"/><path class="cls-1" d="M104.62,90.11a8,8,0,0,0-1,2,.72.72,0,0,1-.74.64.88.88,0,0,1-.82-.37c-.27-.36-.09-.64.18-1,.46-.64.92-1.28,1.38-1.83A7.78,7.78,0,0,0,104.62,90.11Z" transform="translate(-1.55 -45.4)"/><path class="cls-1" d="M114.33,104.22c0-.92.27-1.74.36-2.66.09-.64.55-.64.83-.64.55,0,.27.55.36.83.1,1-.73,1.74-.55,2.75C115,104.4,114.6,104.31,114.33,104.22Z" transform="translate(-1.55 -45.4)"/><path class="cls-1" d="M100.77,87.55a1.36,1.36,0,0,0-1.28,1.1,1.66,1.66,0,0,1-1.93,1.1,3.9,3.9,0,0,1,1.1-2.11C99.39,86.91,100,86.72,100.77,87.55Z" transform="translate(-1.55 -45.4)"/><path class="cls-1" d="M129.63,90.3a2.66,2.66,0,0,1,.55.45c.45.55,1.28,1,.55,1.74-.28.28-.92-.27-1.38-.55-.09-.09-.27,0-.36-.09C128.07,90.85,129.54,90.85,129.63,90.3Z" transform="translate(-1.55 -45.4)"/><path class="cls-1" d="M116.07,104.59c.55-.37.55-1,.64-1.56a2.21,2.21,0,0,1,.82-1.19c.19-.18.37,0,.37.18a1.14,1.14,0,0,1-.27,1.28c-.55.55-.28,2.11-1.75,1.75C115.88,104.86,115.88,104.68,116.07,104.59Z" transform="translate(-1.55 -45.4)"/><path class="cls-1" d="M111.76,102.66a9.89,9.89,0,0,0,.37-1.74.66.66,0,0,1,.82-.73.6.6,0,0,1,.46.82c-.27.74,0,1.84-1.1,2.11C112,103.12,111.85,102.85,111.76,102.66Z" transform="translate(-1.55 -45.4)"/><path class="cls-1" d="M136,114.39c.18-.64.91-1.1,1-1.83.09-.37.45-.64,1-.37s0,.64-.09.83c-.36.55-.55,1.19-1.1,1.46C136.5,114.48,136.22,114.39,136,114.39Z" transform="translate(-1.55 -45.4)"/><path class="cls-1" d="M132.65,94.88c0-.74-.82-1.29-.27-2a.92.92,0,0,1,1.19.73C133.66,94.33,133.29,94.6,132.65,94.88Z" transform="translate(-1.55 -45.4)"/><path class="cls-3" d="M131.18,99.37h-.82c0-.46.64-.92,0-1.47a1.55,1.55,0,0,1,.18-.46c.28-.27.55-.09.83.18s.55.19.36.55S131.37,99,131.18,99.37Z" transform="translate(-1.55 -45.4)"/><path class="cls-3" d="M111.21,121.35c.09.83.09,1.56-.82,1.93A4.47,4.47,0,0,1,111.21,121.35Z" transform="translate(-1.55 -45.4)"/><path class="cls-3" d="M118.36,123.28c-.09-.64.09-1,.73-1.1C119,122.64,118.91,123.09,118.36,123.28Z" transform="translate(-1.55 -45.4)"/><path class="cls-3" d="M124.13,113.93c0-.46.09-.91.55-1.1C124.68,113.29,125,113.93,124.13,113.93Z" transform="translate(-1.55 -45.4)"/><path class="cls-3" d="M125.5,111.18c-.09-.36.1-.55.46-.64C126.33,111.18,126.05,111.28,125.5,111.18Z" transform="translate(-1.55 -45.4)"/><path class="cls-3" d="M142.27,107.89c-.09.18-.18.27-.37.18s0-.28.09-.46Z" transform="translate(-1.55 -45.4)"/><path class="cls-3" d="M103.15,98.82c.09,0,.09.09.09.18s-.09-.09-.18-.09Z" transform="translate(-1.55 -45.4)"/><path class="cls-1" d="M109.29,105.14h0a.09.09,0,0,1-.09-.09l.09.09Z" transform="translate(-1.55 -45.4)"/><path class="cls-2" d="M123,161.76" transform="translate(-1.55 -45.4)"/><path class="cls-1" d="M119.18,115.31c0,.64.55,1,.92,1.37a1.51,1.51,0,0,1-.09,2.57c-.64.36-1.19-.46-1.84-.65a1.09,1.09,0,0,1-.36-1.46c.46-.64,0-1.83,1.37-1.83Z" transform="translate(-1.55 -45.4)"/><path class="cls-1" d="M116.16,125.48c-.64,0-.92.64-1.47.91s-1,.37-1.28-.27c-.18-.46-.09-1,.64-.83.37.09.37-.09.37-.36-.09-.83.27-1.56,1.1-1.56s.64,1,.64,1.65v.46Z" transform="translate(-1.55 -45.4)"/><path class="cls-1" d="M119.18,115.31c-.09-.74.19-1.47.92-1.56a2.11,2.11,0,0,1,1.83,1.19,2,2,0,0,1-.64,2.29,2.09,2.09,0,0,0-2.11-1.92Z" transform="translate(-1.55 -45.4)"/><path class="cls-1" d="M113.41,129.6c-.27-.37-.55-.64-.82-1a.83.83,0,0,1,.09-1.1c.18-.27.36-.27.55-.09s.82.55.55,1.1a1.17,1.17,0,0,0-.37,1.1Z" transform="translate(-1.55 -45.4)"/><path class="cls-3" d="M114.78,118.33s-.45.09-.54-.18a.57.57,0,0,1,.09-.37c.27-.09.45.27.45.27Z" transform="translate(-1.55 -45.4)"/><path class="cls-1" d="M143.74,116.77c.55-1.65-.19-1.28-1.2-.46a.47.47,0,0,1-.73-.09c-.18-.18-.09-.46,0-.64.46-.91.73-2.2,2.2-.73.37.36,1.56,0,2.29.64.28.27.55.46.18.82-.64.65-.82,2-2.19,1.65C143.74,117.87,143.64,117.41,143.74,116.77Z" transform="translate(-1.55 -45.4)"/><path class="cls-4" d="M248.45,154.52c-16.4.91-32.7,1.74-49.1,2.65-.55,0-.65-.09-.65-.64-1-18.59-2-37.19-3-55.7,0-.55.09-.64.64-.64,16.13-.82,32.34-1.74,48.47-2.57.55,0,.64.1.64.65Q246.95,126.31,248.45,154.52ZM215.29,139c.36.55.73.28,1-.09.1-.18.1-.36.19-.55.55-.91.27-1.55-.73-2-1.1-.28-1.38-.19-1.56.55A1.53,1.53,0,0,0,215.29,139Zm15.94-15.39c-.09-.64-.46-.82-1-1.1s-.82.1-1.28.1-.46.45-.46.82v.18c-.18.19-.18.28,0,.46a1.42,1.42,0,0,0,.73,1c.46.27.92.55,1.47.18s.82-.73.55-1.37a.19.19,0,0,0,.18-.18A.27.27,0,0,1,231.23,123.64Zm-23.64-5.13c.09.19.18.37.28.55s0,.55.36.46l.28.28c.36.55.73.36,1.1,0,.82-.55,1.1-1.2.64-2a1.77,1.77,0,0,0-2.38-.64C207.5,117.69,207.22,118.06,207.59,118.51Zm-2.38,9.35a1.55,1.55,0,0,0-1.28-1.65,1.45,1.45,0,0,0-1.19,1.37c.09,1,.55,1.65,1.28,1.65A1.31,1.31,0,0,0,205.21,127.86Z" transform="translate(-1.55 -45.4)"/><path class="cls-2" d="M206.86,123.28c-.09,0-.28-.09-.28-.19a1.53,1.53,0,0,0-1.28-.27c-1.37,0-1.83-.92-2.38-1.83-.18-.46-1.56-3.67-1.38-4.68.28.37.92.37.83.92-.18,1,.64,1.65.92,2.47a5.19,5.19,0,0,0,1.64,2.11c.74.37,2.11,1.28,2.3.92s-.28-.92-.37-1.29c-.28-1.83-1.56-2.74-3-3.66-.37-.27-1.1-.09-1.2-.82h.74a4.73,4.73,0,0,1,2.2,1.19c.18.18.36.27.55.45.55.74,1.19,1.47,1.74,2.11.09.09.09.19.18.28.09.64.64.82,1,.55a6,6,0,0,1,2.47-.83,1.45,1.45,0,0,1,1.38.28,4.45,4.45,0,0,0,1.92.73c.46.09.82.55,1.28.64,0,.18-.09.28-.18.28a15.89,15.89,0,0,0-2.66,1.19s-2.93,1-4.4,0c-.27-.19-.36,0-.36.27a6.63,6.63,0,0,0-.19,1.93,23,23,0,0,0,.28,2.47,5.59,5.59,0,0,0,1.65,2.75,5,5,0,0,0,3.57,1.55,6.7,6.7,0,0,0,3.48-1c.55-.37.09-.55-.18-.64a6.29,6.29,0,0,1-3.39-3.12c-.37-.73-1-2.38-.64-2.29s.27,0,.37.09a13.62,13.62,0,0,1,2.56.83,6.79,6.79,0,0,1,3,3.2c.28.55.46.28.64,0a6.81,6.81,0,0,0,1.1-1.74c.28-1.19,3.76-6.59,4.95-7.14.46-.28.37-.37.09-.64a8.7,8.7,0,0,1-3-4.59,3.46,3.46,0,0,1,.73-2.84.4.4,0,0,1,.64-.09c.37.46,1,.64,1.2,1.19.18.37.64.46.91.83a20.53,20.53,0,0,1,1.38,2.38,4.37,4.37,0,0,1,.73,2.38c0,.37.18.64.64.55,2.29-.55,3.76.73,5.13,2.11.46.46.64.46,1-.09a5.84,5.84,0,0,1,4.67-2.2,13.23,13.23,0,0,1,2.66.18c.27.19-.37,1.28-.64,1.93l-.19.18a12.63,12.63,0,0,1-1.92,1.37,9.14,9.14,0,0,1-1.38.74,4.94,4.94,0,0,1-2.56,0c-.46-.19-.37.09-.46.45-.46,1.93-1,9.53.83,7.88a9.74,9.74,0,0,1,2.29,0c-.19-.18,4.21,1.29,5.13,1.65.55.19.73.37.55.92-.28.27-2.11.64-2.29.91a17.63,17.63,0,0,1-2.29.1c-.28,0-1.2.18-1.38.18-.64-.09-1.28-.09-1.92-.18h0l-.09-.1-.28-.27-.09-.09a4,4,0,0,0-3.39-2,9.09,9.09,0,0,1-5.31-3.66c-.28-.37-.19-.55.18-.73a1.78,1.78,0,0,1,1-.28c1.37.09,2.84-.09,4.12.73a2.12,2.12,0,0,0,1.28.55c.46-.82.37-8.15-2.47-8.43-1-.64-4.22,0-4.95.92a16.68,16.68,0,0,0-4.95,7.15c-.09.45-1.19.73-.36,1.46.09.09,0,.19-.09.28-.74.36-.46.82-.28,1.37a4.75,4.75,0,0,0,.83,1.1,6.9,6.9,0,0,0,3.94,2.66c.36.09.64-.19.45-.55a7,7,0,0,0-2.38-3.48,10.1,10.1,0,0,1-1.65-1c.19-.28.37-.18.64-.18a7.28,7.28,0,0,1,3.39,2.38,4.83,4.83,0,0,1,1.38,2.84c0,.46-.28.82-.74.73a11.9,11.9,0,0,1-3.11-.82,16.46,16.46,0,0,1-3.21-2.84,1,1,0,0,1-.18-.74c.09-.46-.37-.46-.55-.64s-.27.18-.46.28c-.18.82-2.56,2-4.95,2-1.37-.82-2.93,2.29-3.57,2.84a9,9,0,0,1-3.2,1.74,3.58,3.58,0,0,1-2.75-.55c-.46-.27-.37-1.1-.19-1.55.55-1.65,1.19-2.57,3.94-3.49.46-.18,3.94.37,1.65-.55-2.84-1.19-3.57-6.59-2.75-8.61C207,124,207.5,123.64,206.86,123.28ZM227,119a6.75,6.75,0,0,0-.45-1.46,7.58,7.58,0,0,0-2.66-3.85c-.28-.19-.46-.28-.55.27s.09,1.1,0,1.65a3.22,3.22,0,0,0,.92,2.57c.64.82,1.55,1.28,2.1,2.1.09.19.37.37.37,0A4.54,4.54,0,0,1,227,119Zm14.75,15.76c-.55-.09-1.28-.92-2.1-1.1a10.1,10.1,0,0,0-3.67-.46c-.36.09-.91.83-.64,1,.46.37.83,1,1.56,1a18.79,18.79,0,0,0,4.58-.28C241.58,135,242.31,134.82,241.76,134.73Zm-12.82-5.31c-.28.18-.74-.1-.83.27a1.09,1.09,0,0,0,.37,1c.27.18.46.36.73.55.55.46,1.38.64,1.93,1.1a2.78,2.78,0,0,0,1.83.46c.27-.1.18-.37.09-.55-.27-1-1.19-1.56-1.74-2.2S229.76,129.6,228.94,129.42Zm-22.63,8.88c.27.19.37,0,.46-.09,1.65-.64,2.2-2.47,3.66-3.39a.42.42,0,0,0,0-.46c-.09-.18-.27-.09-.46,0a17.67,17.67,0,0,1-1.92.83,5.17,5.17,0,0,0-2.11,1.1c-.46.45-.46,1.19-.91,1.65-.1.09-.19.36,0,.45a.54.54,0,0,0,.55,0A1.09,1.09,0,0,1,206.31,138.3Zm4.3-16.76a8.41,8.41,0,0,0-1.46.36c-.55.09-.46.74-.46,1.1-.09.92,3.39,1.28,4.67.19.19-.19.46-.28.19-.46C212.54,122.18,211.81,121.17,210.61,121.54Zm7.61,9.43c.37-.46-.73-2.47-1.65-3.11a11.64,11.64,0,0,0-3.12-1.65C212.63,126.48,216.57,131,218.22,131Zm22.54-9.8c1.83-1.19-4.31.46-5.59,1.83-.19.09-.37.37,0,.46s.82.37,1.28.37C238.19,123.64,238.92,122.36,240.76,121.17Z" transform="translate(-1.55 -45.4)"/><path class="cls-3" d="M234.53,136.1c.36.92-.37,1.56-.83,2.2-.18.37-2.38-.36-2.56-1.28a5.47,5.47,0,0,1,.18-1.47c.27-.64.92-.55,1.56-.73s1.37.92,1.55,1.28v0C234.43,136,234.43,136.1,234.53,136.1Zm-1.29.19c0-.37-.09-.64-.45-.55-.83.18-.55.91-.74,1.37a.45.45,0,0,0,.37.55,1.32,1.32,0,0,0,.82-.37C233.43,136.93,233.06,136.56,233.24,136.29Z" transform="translate(-1.55 -45.4)"/><path class="cls-3" d="M219.23,123.55c.09-.64-.19-1.19.18-1.65a1.17,1.17,0,0,1,1.28-.46c.64.1,1.38.28,1.47,1.1C221.7,124.19,218.77,125.93,219.23,123.55Zm1-.91c.1.18-.09.45.19.36a1.11,1.11,0,0,0,.82-.73c0-.18-.36-.28-.55-.28A.6.6,0,0,0,220.23,122.64Z" transform="translate(-1.55 -45.4)"/><path class="cls-3" d="M239.47,131.06a1.84,1.84,0,0,1-.64-.09c-.55-.09-.73-.82-1.28-.82a2,2,0,0,1-.55-1.38,1.6,1.6,0,0,1,.09-.64h0c0-.09.09-.09.09-.18h0c.09-.09.19-.18.19-.28s.55-.36.82-.27c2-.37,2.11,2.11,1.56,2.93l-.09.46-.19.18C239.57,131.06,239.57,131.06,239.47,131.06Zm-.09-2.29c-.09-.18-.09-.55-.64-.55s-.73.55-.82,1.1a.48.48,0,0,0,.64.55C239,129.87,239.47,129.6,239.38,128.77Z" transform="translate(-1.55 -45.4)"/><path class="cls-3" d="M207.59,118.51a2.23,2.23,0,0,1,.18-1.28,1.76,1.76,0,0,1,2.39.64c.45.73.18,1.47-.64,2-.37.27-.74.55-1.1,0l-.28-.28C208.05,119.43,207.59,119,207.59,118.51Zm1.38-.18c0,.37-.28.46-.28.64s.28.55.46.46a.92.92,0,0,0,.55-.73C209.7,118.6,208.87,118,209,118.33Z" transform="translate(-1.55 -45.4)"/><path class="cls-3" d="M228.48,123.64v-.18c.55-.18.92-.27.73.55,0,.18,0,.55.28.55a1.06,1.06,0,0,0,.82-.55.66.66,0,0,0,.09-.73c-.18-.28-.45-.19-.73-.09s-.82.18-.82-.46c.45,0,.73-.28,1.28-.09a1.25,1.25,0,0,1,1,1.1V124c.27.64-.09,1-.55,1.37a1.12,1.12,0,0,1-1.47-.18,1.86,1.86,0,0,1-.73-1A1.36,1.36,0,0,0,228.48,123.64Z" transform="translate(-1.55 -45.4)"/><path class="cls-3" d="M205.21,127.86a1.31,1.31,0,0,1-1.19,1.37c-.73.09-1.28-.64-1.28-1.65a1.67,1.67,0,0,1,1.19-1.37A1.55,1.55,0,0,1,205.21,127.86Zm-1.19.82a.82.82,0,0,0,.73-.91c0-.1-.09-.74-.55-.65s-1.1.65-1,1.1S203.65,128.68,204,128.68Z" transform="translate(-1.55 -45.4)"/><path class="cls-3" d="M215.75,136.29a.34.34,0,0,1-.37.36c-.73,0-.92.46-.83,1.1.1.28.19.46.46.55s.46-.09.55-.36c0-.1.19-.1.19-.19.18-.18.18-.64.54-.36s-.18.36-.18.55c-.09.64-.27,1-1,1-.91-.18-1.28-1-1.1-2.1C214.37,136.1,214.65,136,215.75,136.29Z" transform="translate(-1.55 -45.4)"/><path class="cls-4" d="M232.88,134.73a1.55,1.55,0,0,0-1.56.73c0-.55.18-.91.73-1,.28-.09.64-.64.64-.64S233.24,134.73,232.88,134.73Z" transform="translate(-1.55 -45.4)"/><path class="cls-4" d="M205.3,122.82" transform="translate(-1.55 -45.4)"/><path class="cls-4" d="M206.58,128.13" transform="translate(-1.55 -45.4)"/><path class="cls-4" d="M206.86,123.28c.64.27.09.73.09,1.1A4.58,4.58,0,0,1,206.86,123.28Z" transform="translate(-1.55 -45.4)"/><path class="cls-5" d="M208.23,119.52" transform="translate(-1.55 -45.4)"/><path class="cls-5" d="M237.55,127.67c-.09.1-.18.19-.18.28C237.27,127.86,237.37,127.67,237.55,127.67Z" transform="translate(-1.55 -45.4)"/><path class="cls-5" d="M237.27,128c0,.09-.09.09-.09.18A.31.31,0,0,1,237.27,128Z" transform="translate(-1.55 -45.4)"/><path class="cls-5" d="M235.9,135.92l.09.09C235.9,136,235.9,136,235.9,135.92Z" transform="translate(-1.55 -45.4)"/><path class="cls-5" d="M235.53,135.55l.1.1C235.53,135.65,235.53,135.65,235.53,135.55Z" transform="translate(-1.55 -45.4)"/><path class="cls-5" d="M234.53,136.1c-.1,0-.1,0-.1-.09S234.62,135.92,234.53,136.1Z" transform="translate(-1.55 -45.4)"/><path class="cls-5" d="M239.47,131.06l.1-.09C239.57,131.06,239.57,131.16,239.47,131.06Z" transform="translate(-1.55 -45.4)"/><path class="cls-5" d="M231,121.9" transform="translate(-1.55 -45.4)"/><path class="cls-5" d="M206.86,124.65" transform="translate(-1.55 -45.4)"/><path class="cls-5" d="M242.68,135.74" transform="translate(-1.55 -45.4)"/><path class="cls-4" d="M206.31,138.3a1.09,1.09,0,0,0-.73.09.54.54,0,0,1-.55,0c-.19-.09-.1-.36,0-.45.55-.46.45-1.1.91-1.65a4.67,4.67,0,0,1,2.11-1.1,17.67,17.67,0,0,0,1.92-.83.43.43,0,0,1,.46,0c.09.09.18.37,0,.46-1.46.92-2,2.66-3.66,3.39C206.68,138.21,206.58,138.39,206.31,138.3Z" transform="translate(-1.55 -45.4)"/><path class="cls-4" d="M232.79,133.81" transform="translate(-1.55 -45.4)"/><path class="cls-4" d="M54.32,154.52c-16.4.91-32.71,1.74-49.11,2.65-.55,0-.64-.09-.64-.64-1-18.59-2-37.19-3-55.7,0-.55.09-.64.64-.64,16.12-.82,32.34-1.74,48.46-2.57.55,0,.65.1.65.65Q52.8,126.31,54.32,154.52ZM21.06,139c.37.55.74.28,1-.09.09-.18.09-.36.18-.55.55-.91.28-1.55-.73-2-1.1-.28-1.37-.19-1.56.55C19.78,138,20.24,138.85,21.06,139ZM37,123.64c-.09-.64-.45-.82-1-1.1s-.83.1-1.29.1-.46.45-.46.82v.18c-.18.19-.18.28,0,.46a1.43,1.43,0,0,0,.74,1c.46.27.91.55,1.46.18s.83-.73.55-1.37a.2.2,0,0,0,.19-.18A.28.28,0,0,1,37,123.64Zm-23.54-5.13.27.55c0,.28,0,.55.37.46l.27.28c.37.55.74.36,1.1,0,.83-.55,1.1-1.2.64-2a1.77,1.77,0,0,0-2.38-.64C13.37,117.69,13,118.06,13.46,118.51Zm-2.38,9.35a1.55,1.55,0,0,0-1.29-1.65,1.46,1.46,0,0,0-1.19,1.37c.09,1,.55,1.65,1.29,1.65A1.38,1.38,0,0,0,11.08,127.86Z" transform="translate(-1.55 -45.4)"/><path class="cls-2" d="M12.63,123.28c-.09,0-.27-.09-.27-.19a1.53,1.53,0,0,0-1.28-.27c-1.38,0-1.84-.92-2.39-1.83-.18-.46-1.55-3.67-1.37-4.68.27.37.92.37.82.92-.18,1,.65,1.65.92,2.47a5.2,5.2,0,0,0,1.65,2.11c.73.37,2.11,1.28,2.29.92s-.27-.92-.37-1.29c-.27-1.83-1.55-2.74-3-3.66-.37-.27-1.1-.09-1.19-.82h.73a4.63,4.63,0,0,1,2.2,1.19c.18.18.37.27.55.45.55.74,1.19,1.47,1.74,2.11.09.09.09.19.18.28.1.64.65.82,1,.55a6.08,6.08,0,0,1,2.48-.83,1.43,1.43,0,0,1,1.37.28,4.5,4.5,0,0,0,1.92.73c.46.09.83.55,1.29.64,0,.18-.09.28-.19.28a16.05,16.05,0,0,0-2.65,1.19s-2.94,1-4.4,0c-.28-.19-.37,0-.37.27A7,7,0,0,0,14.1,126a20.74,20.74,0,0,0,.27,2.47A5.66,5.66,0,0,0,16,131.25a5,5,0,0,0,3.58,1.55,6.7,6.7,0,0,0,3.48-1c.55-.37.09-.55-.19-.64A6.36,6.36,0,0,1,19.5,128c-.36-.73-1-2.38-.64-2.29s.28,0,.37.09a13.48,13.48,0,0,1,2.57.83,6.83,6.83,0,0,1,3,3.2c.27.55.46.28.64,0a6.81,6.81,0,0,0,1.1-1.74c.27-1.19,3.76-6.59,5-7.14.45-.28.36-.37.09-.64a8.66,8.66,0,0,1-3-4.59,3.5,3.5,0,0,1,.74-2.84.4.4,0,0,1,.64-.09c.37.46,1,.64,1.19,1.19.18.37.64.46.92.83a20.48,20.48,0,0,1,1.37,2.38,4.29,4.29,0,0,1,.73,2.38c0,.37.19.64.64.55,2.29-.55,3.76.73,5.13,2.11.46.46.65.46,1-.09a5.86,5.86,0,0,1,4.68-2.2,13.13,13.13,0,0,1,2.65.18c.28.19-.36,1.28-.64,1.93l-.18.18a13.14,13.14,0,0,1-1.93,1.37,8.92,8.92,0,0,1-1.37.74,5,5,0,0,1-2.57,0c-.45-.19-.36.09-.45.45-.46,1.93-1,9.53.82,7.88a9.74,9.74,0,0,1,2.29,0,52.21,52.21,0,0,1,5.13,1.65c.55.19.73.37.55.92-.27.27-2.11.64-2.29.91a17.55,17.55,0,0,1-2.29.1c-.27,0-1.19.18-1.37.18-.65-.09-1.29-.09-1.93-.18h0l-.09-.1-.27-.27-.1-.09a4,4,0,0,0-3.39-2,9.12,9.12,0,0,1-5.31-3.66c-.27-.37-.18-.55.18-.73a1.83,1.83,0,0,1,1-.28c1.38.09,2.84-.09,4.12.73a2.13,2.13,0,0,0,1.29.55c.45-.82.36-8.15-2.48-8.43-1-.64-4.21,0-4.94.92a16.49,16.49,0,0,0-5,7.15c-.09.45-1.19.73-.37,1.46.09.09,0,.19-.09.28-.73.36-.46.82-.27,1.37a5,5,0,0,0,.82,1.1,6.93,6.93,0,0,0,3.94,2.66c.37.09.64-.19.46-.55a7,7,0,0,0-2.38-3.48,9.7,9.7,0,0,1-1.65-1c.18-.28.36-.18.64-.18a7.38,7.38,0,0,1,3.39,2.38A4.88,4.88,0,0,1,33,136.93c0,.46-.27.82-.73.73a11.87,11.87,0,0,1-3.12-.82,16.4,16.4,0,0,1-3.2-2.84,1,1,0,0,1-.19-.74c.1-.46-.36-.46-.55-.64s-.27.18-.45.28c-.19.82-2.57,2-4.95,2-1.37-.82-2.93,2.29-3.57,2.84A9,9,0,0,1,13,139.49a3.59,3.59,0,0,1-2.75-.55c-.46-.27-.36-1.1-.18-1.55.55-1.65,1.19-2.57,3.94-3.49.46-.18,3.94.37,1.65-.55-2.84-1.19-3.58-6.59-2.75-8.61C12.73,124,13.27,123.64,12.63,123.28ZM32.79,119c0-.55-.37-1-.46-1.46a7.52,7.52,0,0,0-2.66-3.85c-.27-.19-.45-.28-.55.27s.1,1.1,0,1.65a3.22,3.22,0,0,0,.92,2.57c.64.82,1.56,1.28,2.11,2.1.09.19.36.37.36,0A9.55,9.55,0,0,0,32.79,119Zm14.75,15.76c-.55-.09-1.28-.92-2.11-1.1a10,10,0,0,0-3.66-.46c-.37.09-.92.83-.64,1,.45.37.82,1,1.55,1a18.76,18.76,0,0,0,4.58-.28C47.36,135,48.09,134.82,47.54,134.73Zm-12.83-5.31c-.27.18-.73-.1-.82.27a1.11,1.11,0,0,0,.36,1c.28.18.46.36.74.55.55.46,1.37.64,1.92,1.1a2.81,2.81,0,0,0,1.83.46c.28-.1.19-.37.1-.55-.28-1-1.2-1.56-1.75-2.2S35.63,129.6,34.71,129.42ZM12.18,138.3c.27.19.36,0,.45-.09,1.65-.64,2.2-2.47,3.67-3.39a.42.42,0,0,0,0-.46c-.09-.18-.28-.09-.46,0a17.67,17.67,0,0,1-1.92.83,5.11,5.11,0,0,0-2.11,1.1c-.46.45-.46,1.19-.92,1.65-.09.09-.18.36,0,.45a.54.54,0,0,0,.55,0A1.07,1.07,0,0,1,12.18,138.3Zm4.21-16.76a8.46,8.46,0,0,0-1.47.36c-.55.09-.45.74-.45,1.1-.1.92,3.39,1.28,4.67.19.18-.19.46-.28.18-.46C18.41,122.18,17.67,121.17,16.39,121.54Zm7.7,9.43c.36-.46-.74-2.47-1.65-3.11a11.64,11.64,0,0,0-3.12-1.65C18.5,126.48,22.34,131,24.09,131Zm22.44-9.8c1.83-1.19-4.3.46-5.59,1.83-.18.09-.36.37,0,.46s.83.37,1.29.37C44.06,123.64,44.7,122.36,46.53,121.17Z" transform="translate(-1.55 -45.4)"/><path class="cls-3" d="M40.3,136.1c.37.92-.37,1.56-.82,2.2-.19.37-2.39-.36-2.57-1.28a5.91,5.91,0,0,1,.18-1.47c.28-.64.92-.55,1.56-.73s1.38.92,1.56,1.28v0C40.21,136,40.21,136.1,40.3,136.1Zm-1.19.19c0-.37-.09-.64-.46-.55-.82.18-.55.91-.73,1.37a.45.45,0,0,0,.37.55,1.32,1.32,0,0,0,.82-.37C39.2,136.93,38.84,136.56,39.11,136.29Z" transform="translate(-1.55 -45.4)"/><path class="cls-3" d="M25,123.55c.09-.64-.18-1.19.18-1.65a1.19,1.19,0,0,1,1.29-.46c.64.1,1.37.28,1.46,1.1C27.48,124.19,24.54,125.93,25,123.55Zm1.1-.91c.09.18-.09.45.18.36a1.1,1.1,0,0,0,.83-.73c0-.18-.37-.28-.55-.28A.6.6,0,0,0,26.1,122.64Z" transform="translate(-1.55 -45.4)"/><path class="cls-3" d="M45.25,131.06a1.81,1.81,0,0,1-.64-.09c-.55-.09-.74-.82-1.29-.82a2.06,2.06,0,0,1-.54-1.38,1.6,1.6,0,0,1,.09-.64h0c0-.09.09-.09.09-.18h0c.09-.09.18-.18.18-.28s.55-.36.83-.27c2-.37,2.1,2.11,1.55,2.93l-.09.46-.18.18C45.34,131.06,45.34,131.06,45.25,131.06Zm0-2.29c-.09-.18-.09-.55-.64-.55s-.74.55-.83,1.1a.48.48,0,0,0,.64.55C44.88,129.87,45.25,129.6,45.25,128.77Z" transform="translate(-1.55 -45.4)"/><path class="cls-3" d="M13.46,118.51a2.23,2.23,0,0,1,.18-1.28,1.74,1.74,0,0,1,2.38.64c.46.73.19,1.47-.64,2-.36.27-.73.55-1.1,0l-.27-.28C13.92,119.43,13.46,119,13.46,118.51Zm1.28-.18c0,.37-.27.46-.27.64s.27.55.45.46a.9.9,0,0,0,.55-.73C15.47,118.6,14.74,118,14.74,118.33Z" transform="translate(-1.55 -45.4)"/><path class="cls-3" d="M34.35,123.64v-.18c.55-.18.91-.27.73.55,0,.18,0,.55.27.55a1.06,1.06,0,0,0,.83-.55.7.7,0,0,0,.09-.73c-.18-.28-.46-.19-.73-.09s-.83.18-.83-.46c.46,0,.74-.28,1.29-.09a1.24,1.24,0,0,1,1,1.1V124c.28.64-.09,1-.55,1.37A1.11,1.11,0,0,1,35,125.2a1.94,1.94,0,0,1-.74-1A1.23,1.23,0,0,0,34.35,123.64Z" transform="translate(-1.55 -45.4)"/><path class="cls-3" d="M11.08,127.86a1.31,1.31,0,0,1-1.19,1.37c-.74.09-1.29-.64-1.29-1.65a1.67,1.67,0,0,1,1.19-1.37C10.34,126.21,11,126.94,11.08,127.86Zm-1.29.82a.82.82,0,0,0,.74-.91c0-.1-.1-.74-.55-.65s-1.1.65-1,1.1S9.43,128.68,9.79,128.68Z" transform="translate(-1.55 -45.4)"/><path class="cls-3" d="M21.52,136.29a.33.33,0,0,1-.37.36c-.73,0-.91.46-.82,1.1.09.28.18.46.46.55s.46-.09.55-.36c0-.1.18-.1.18-.19.18-.18.18-.64.55-.36s-.18.36-.18.55c-.09.64-.28,1-1,1-.92-.18-1.28-1-1.1-2.1C20.15,136.1,20.42,136,21.52,136.29Z" transform="translate(-1.55 -45.4)"/><path class="cls-4" d="M38.74,134.73a1.53,1.53,0,0,0-1.55.73c0-.55.18-.91.73-1,.27-.09.64-.64.64-.64S39,134.73,38.74,134.73Z" transform="translate(-1.55 -45.4)"/><path class="cls-4" d="M11.08,122.82" transform="translate(-1.55 -45.4)"/><path class="cls-4" d="M12.45,128.13" transform="translate(-1.55 -45.4)"/><path class="cls-4" d="M12.63,123.28c.64.27.1.73.1,1.1C12.73,124,12.63,123.64,12.63,123.28Z" transform="translate(-1.55 -45.4)"/><path class="cls-5" d="M14,119.52" transform="translate(-1.55 -45.4)"/><path class="cls-5" d="M43.32,127.67c-.09.1-.18.19-.18.28C43.14,127.86,43.14,127.67,43.32,127.67Z" transform="translate(-1.55 -45.4)"/><path class="cls-5" d="M43.14,128c0,.09-.09.09-.09.18C43.05,128.13,43.05,128,43.14,128Z" transform="translate(-1.55 -45.4)"/><path class="cls-5" d="M41.68,135.92l.09.09A.09.09,0,0,1,41.68,135.92Z" transform="translate(-1.55 -45.4)"/><path class="cls-5" d="M41.31,135.55l.09.1A.09.09,0,0,1,41.31,135.55Z" transform="translate(-1.55 -45.4)"/><path class="cls-5" d="M40.3,136.1c-.09,0-.09,0-.09-.09S40.39,135.92,40.3,136.1Z" transform="translate(-1.55 -45.4)"/><path class="cls-5" d="M45.25,131.06l.09-.09C45.43,131.06,45.34,131.16,45.25,131.06Z" transform="translate(-1.55 -45.4)"/><path class="cls-5" d="M36.91,121.9" transform="translate(-1.55 -45.4)"/><path class="cls-5" d="M12.63,124.65" transform="translate(-1.55 -45.4)"/><path class="cls-5" d="M48.55,135.74" transform="translate(-1.55 -45.4)"/><path class="cls-4" d="M12.18,138.3a1.12,1.12,0,0,0-.74.09.54.54,0,0,1-.55,0c-.18-.09-.09-.36,0-.45.55-.46.46-1.1.92-1.65a4.62,4.62,0,0,1,2.11-1.1,17.67,17.67,0,0,0,1.92-.83.43.43,0,0,1,.46,0c.09.09.18.37,0,.46-1.47.92-2,2.66-3.67,3.39C12.45,138.21,12.45,138.39,12.18,138.3Z" transform="translate(-1.55 -45.4)"/><path class="cls-4" d="M38.56,133.81" transform="translate(-1.55 -45.4)"/></g><path class="cls-2" d="M145.57,140.78v1.36a8.54,8.54,0,0,1-1.46,1.8l0-.42A11.24,11.24,0,0,1,145.57,140.78Z" transform="translate(-1.55 -45.4)"/><path class="cls-2" d="M110.79,158.88" transform="translate(-1.55 -45.4)"/><path class="cls-2" d="M123.44,163.38c4.76.22,7.56-.38,12.38-1.58l-1-1C133,162,113,162,110.79,158.88l-.39,1.74A28.16,28.16,0,0,0,123.44,163.38Z" transform="translate(-1.55 -45.4)"/></svg>